<?xml version="1.0" encoding="UTF-8" standalone="no"?>
<!-- Created with Inkscape (http://www.inkscape.org/) -->

<svg
   xmlns:dc="http://purl.org/dc/elements/1.1/"
   xmlns:cc="http://creativecommons.org/ns#"
   xmlns:rdf="http://www.w3.org/1999/02/22-rdf-syntax-ns#"
   xmlns:svg="http://www.w3.org/2000/svg"
   xmlns="http://www.w3.org/2000/svg"
   xmlns:sodipodi="http://sodipodi.sourceforge.net/DTD/sodipodi-0.dtd"
   xmlns:inkscape="http://www.inkscape.org/namespaces/inkscape"
   width="744.09448819"
   height="1052.3622047"
   id="svg2"
   version="1.1"
   inkscape:version="0.48.5 r10040"
   sodipodi:docname="New document 1">
  <defs
     id="defs4" />
  <sodipodi:namedview
     id="base"
     pagecolor="#ffffff"
     bordercolor="#666666"
     borderopacity="1.0"
     inkscape:pageopacity="0.0"
     inkscape:pageshadow="2"
     inkscape:zoom="0.7"
     inkscape:cx="222.54166"
     inkscape:cy="510.15607"
     inkscape:document-units="px"
     inkscape:current-layer="layer1-0"
     showgrid="false"
     inkscape:window-width="1920"
     inkscape:window-height="1058"
     inkscape:window-x="-8"
     inkscape:window-y="-8"
     inkscape:window-maximized="1" />
  <metadata
     id="metadata7">
    <rdf:RDF>
      <cc:Work
         rdf:about="">
        <dc:format>image/svg+xml</dc:format>
        <dc:type
           rdf:resource="http://purl.org/dc/dcmitype/StillImage" />
        <dc:title></dc:title>
      </cc:Work>
    </rdf:RDF>
  </metadata>
  <g
     inkscape:label="Layer 1"
     inkscape:groupmode="layer"
     id="layer1">
    <g
       id="layer1-0"
       transform="matrix(1.7958803,0,0,1.7958803,-266.63506,-422.39975)">
      <path
         style="fill:#4d4d4d"
         id="path3121"
         d="m 275.04673,510.22541 c -4.24752,-1.46783 -7.38521,-3.31623 -13.21109,-7.7826 -0.4633,-0.35518 5.88982,-10.36633 6.57852,-10.36633 0.27026,0 1.77224,0.91206 3.33774,2.02679 10.14855,7.22641 23.4435,6.74487 27.44545,-0.99406 1.97134,-3.81213 1.92698,-8.00229 -0.11557,-10.91844 -2.22093,-3.17082 -8.95203,-6.06569 -14.16577,-6.09233 -3.87994,-0.0198 -4.42922,-0.33337 -5.64364,-3.22164 -1.29041,-3.06899 -1.17611,-3.44045 2.79827,-9.09433 2.279,-3.24206 6.28114,-8.55447 8.89364,-11.80536 2.6125,-3.25088 4.751,-6.02094 4.75222,-6.15567 10e-4,-0.13473 -4.16128,-0.02 -9.25,0.25504 l -9.25222,0.5 -0.31336,3.25 -0.31336,3.25 -5.93664,0 -5.93664,0 0,-8.46482 c 0,-7.50143 0.23257,-8.58928 2.04351,-9.55846 1.41592,-0.75778 15.15924,-0.99265 44.75,-0.76476 42.32695,0.32597 42.75786,0.35005 48.48634,2.70868 3.17892,1.30887 7.75777,4.1208 10.17522,6.24872 5.0815,4.47292 10.65482,13.46199 8.35334,13.46199 -1.08062,0 -1.80841,0.8333 -1.80841,5.36865 0,5.80976 0.0832,6 2.6254,6 l 2.6254,0 -0.44398,8.25 c -0.82459,15.32221 -8.59367,26.78337 -21.60519,31.87258 -4.80129,1.87793 -8.19727,2.29793 -21.5058,2.65971 -14.05902,0.38219 -16.01904,0.23518 -17.75,-1.33132 -1.84766,-1.6721 -1.94583,-3.31719 -1.94583,-32.60596 l 0,-30.84501 -4.31499,0 c -4.23417,0 -4.45038,0.16908 -11.54259,9.02658 -3.97518,4.96462 -6.98768,9.41477 -6.69446,9.88922 0.29323,0.47445 1.77489,1.16592 3.29259,1.5366 14.86714,3.63109 20.12941,24.1616 9.4045,36.69124 -7.20325,8.41538 -21.28805,11.33346 -33.8126,7.00529 z m 79.35795,-13.58508 c 16.87507,-7.85691 18.01917,-36.94748 1.84932,-47.02219 -4.18584,-2.60801 -5.86076,-3.007 -14.14392,-3.36928 l -9.3958,-0.41094 0,26.61928 0,26.61928 8.25,-0.01 c 6.6117,-0.008 9.28072,-0.48966 13.4404,-2.42638 z"
         inkscape:connector-curvature="0"
         inkscape:export-filename="C:\Users\Aaron Heuckroth\Documents\GitHub\3DuF\img\path3134.png"
         inkscape:export-xdpi="300"
         inkscape:export-ydpi="300" />
      <path
         style="fill:#3f51b5;fill-opacity:1"
         id="path3134"
         d="m 383.00001,500.57645 2e-5,-32.05254 -3.5,-0.0994 -3.5,-0.0497 -0.0497,-6.54688 0,-6 8.30887,0 c 12.56516,0 12.12882,-0.57549 12.73437,21.7543 0.49937,18.4142 0.54141,18.70466 2.99471,20.68854 3.05953,2.47413 9.89059,2.03332 13.80739,-0.89099 5.50805,-4.11235 6.67514,-8.3587 7.02319,-25.55327 l 0.31881,-15.75 6.91169,0 6.91169,0 0.2695,21.75 0.2695,21.75 4.75,0.30479 4.75,0.30479 0,-27.05479 0,-27.05479 -3.5,0 -3.5,0 0,-6 0,-6 23.5,0 c 28.38937,0 27.5,-0.37192 27.5,11.5 l 0,7.5 -6.5,0 -6.5,0 0,-3.5 0,-3.5 -8.5,0 -8.5,0 0,11 0,11 12.5,0 12.5,0 0,6 0,6 -12.5,0 -12.5,0 0,15.5 0,15.5 -16.56574,0 c -9.50684,0 -17.38996,-0.44111 -18.5,-1.03518 -1.43473,-0.76785 -1.93426,-2.1056 -1.93426,-5.18 l 0,-4.14482 -3.46698,4.05039 c -1.90684,2.22772 -5.06657,4.80945 -7.02163,5.73718 -3.71122,1.76109 -11.48389,2.37654 -15.14256,1.199 -2.10795,-0.67844 -2.12548,-0.56572 -1.60839,10.34376 l 0.52279,11.02967 -6.14162,0 -6.14161,0 z"
         inkscape:connector-curvature="0"
         sodipodi:nodetypes="ccccccssssscccccccccccccsscccccccccccccccccssscsssscccc"
         inkscape:export-xdpi="300"
         inkscape:export-ydpi="300" />
    </g>
  </g>
</svg>
