<?xml version="1.0" encoding="UTF-8" standalone="no"?>
<!-- Created with Inkscape (http://www.inkscape.org/) -->

<svg
   xmlns:dc="http://purl.org/dc/elements/1.1/"
   xmlns:cc="http://creativecommons.org/ns#"
   xmlns:rdf="http://www.w3.org/1999/02/22-rdf-syntax-ns#"
   xmlns:svg="http://www.w3.org/2000/svg"
   xmlns="http://www.w3.org/2000/svg"
   xmlns:sodipodi="http://sodipodi.sourceforge.net/DTD/sodipodi-0.dtd"
   xmlns:inkscape="http://www.inkscape.org/namespaces/inkscape"
   width="744.09448819"
   height="1052.3622047"
   id="svg2"
   version="1.1"
   inkscape:version="0.48.5 r10040"
   sodipodi:docname="New document 1">
  <defs
     id="defs4" />
  <sodipodi:namedview
     id="base"
     pagecolor="#ffffff"
     bordercolor="#666666"
     borderopacity="1.0"
     inkscape:pageopacity="0.0"
     inkscape:pageshadow="2"
     inkscape:zoom="1.4"
     inkscape:cx="564.25195"
     inkscape:cy="608.54269"
     inkscape:document-units="px"
     inkscape:current-layer="layer1-0"
     showgrid="false"
     inkscape:window-width="1920"
     inkscape:window-height="1028"
     inkscape:window-x="1912"
     inkscape:window-y="-8"
     inkscape:window-maximized="1" />
  <metadata
     id="metadata7">
    <rdf:RDF>
      <cc:Work
         rdf:about="">
        <dc:format>image/svg+xml</dc:format>
        <dc:type
           rdf:resource="http://purl.org/dc/dcmitype/StillImage" />
        <dc:title></dc:title>
      </cc:Work>
    </rdf:RDF>
  </metadata>
  <g
     inkscape:label="Layer 1"
     inkscape:groupmode="layer"
     id="layer1">
    <g
       id="layer1-9"
       inkscape:label="Layer 1"
       transform="translate(32.44844,40.60328)">
      <g
         transform="matrix(1.7958803,0,0,1.7958803,-266.63506,-422.39975)"
         id="layer1-0">
        <path
           inkscape:export-ydpi="300"
           inkscape:export-xdpi="300"
           sodipodi:nodetypes="ccccccssssscccccccccccccsscccccccccccccccccssscsssscccc"
           inkscape:connector-curvature="0"
           d="m 275.61137,462.79156 2e-5,-32.05254 -3.5,-0.0994 -3.5,-0.0497 -0.0497,-6.54688 0,-6 8.30887,0 c 12.56516,0 12.12882,-0.57549 12.73437,21.7543 0.49937,18.4142 0.54141,18.70466 2.99471,20.68854 3.05953,2.47413 9.89059,2.03332 13.80739,-0.89099 5.50805,-4.11235 6.67514,-8.3587 7.02319,-25.55327 l 0.31881,-15.75 6.91169,0 6.91169,0 0.2695,21.75 0.2695,21.75 4.75,0.30479 4.75,0.30479 0,-27.05479 0,-27.05479 -3.5,0 -3.5,0 0,-6 0,-6 23.5,0 c 28.38937,0 27.5,-0.37192 27.5,11.5 l 0,7.5 -6.5,0 -6.5,0 0,-3.5 0,-3.5 -8.5,0 -8.5,0 0,11 0,11 12.5,0 12.5,0 0,6 0,6 -12.5,0 -12.5,0 0,15.5 0,15.5 -16.56574,0 c -9.50684,0 -17.38996,-0.44111 -18.5,-1.03518 -1.43473,-0.76785 -1.93426,-2.1056 -1.93426,-5.18 l 0,-4.14482 -3.46698,4.05039 c -1.90684,2.22772 -5.06657,4.80945 -7.02163,5.73718 -3.71122,1.76109 -11.48389,2.37654 -15.14256,1.199 -2.10795,-0.67844 -2.12548,-0.56572 -1.60839,10.34376 l 0.52279,11.02967 -6.14162,0 -6.14161,0 z"
           id="path3134"
           style="fill:#3f51b5;fill-opacity:1" />
      </g>
    </g>
  </g>
</svg>
